<svg height="512pt" viewBox="-61 0 512 512" width="512pt" xmlns="http://www.w3.org/2000/svg"><path d="m90 512h240v-92h-240zm75-61h90v30h-90zm0 0"/><path d="m255 0h-81.085938c-53.988281 0-105.5625 28.480469-129.75 76.746094-17.941406 35.816406-17.480468 71.375-6.1875 103.253906h112.023438c33.089844 0 60 26.910156 60 60h45c24.851562 0 45-20.148438 45-45v-60h30v60c0 41.421875-33.578125 75-75 75h-53.34375c-10.40625 17.847656-29.542969 30-51.65625 30h-45v-30h45c16.539062 0 30-13.460938 30-30s-13.460938-30-30-30h-60c-49.707031 0-90 40.292969-90 90s40.292969 90 90 90h240v-1.519531c34.191406-6.96875 60-37.265625 60-73.480469v-180c0-74.558594-60.441406-135-135-135zm0 0"/></svg>