<svg height="512pt" viewBox="0 -9 512.00037 512" width="512pt" xmlns="http://www.w3.org/2000/svg"><path d="m192.671875 412.246094 46.8125-109.828125-13.070313-30.667969c-18.78125 44.214844-32.386718 76.226562-32.648437 76.84375-8.121094 18.882812-26.609375 31.050781-47.101563 31.050781h-133.832031c-8.75 0-14.886719 8.523438-12.191406 16.796875l12.859375 39.457032c6.4375 19.800781 24.761719 33.105468 45.578125 33.105468h66.324219v-11.625c0-24.882812 20.25-45.132812 45.136718-45.132812zm0 0"/><path d="m361.171875 16.980469c2.84375-6.675781-.757813-13.65625-6.503906-16.054688-5.9375-2.480469-13.1875.140625-15.902344 6.464844-2.0625 4.878906-65.519531 154.199219-66.265625 155.945313 1.410156 3.320312 12.804688 30.125 13.121094 30.871093 39.589844-92.871093 75.226562-176.46875 75.550781-177.226562zm0 0"/><path d="m499.167969 379.644531h-133.835938c-20.492187 0-38.980469-12.167969-47.078125-30.988281 0 0-144.515625-340.058594-145.011718-341.222656l-.011719-.042969c-1.921875-4.484375-6.316407-7.3789062-11.195313-7.3789062-8.738281 0-14.632812 8.9257812-11.207031 16.9687502.472656 1.105469 167.53125 392.996093 168.5 395.265625h22.128906c24.886719 0 45.136719 20.25 45.136719 45.132812v11.625h66.324219c20.816406 0 39.140625-13.304687 45.582031-33.097656l12.867188-39.472656c2.675781-8.261719-3.445313-16.789063-12.199219-16.789063zm0 0"/><path d="m341.457031 442.621094c-16.445312 0-154.378906 0-170.917969 0-8.140624 0-14.761718 6.621094-14.761718 14.757812 0 23.917969-.074219 22.757813.222656 24.359375 1.03125 6.015625 5.730469 10.792969 11.695312 11.957031 2.078126.4375 174.394532.464844 176.609376 0 5.960937-1.164062 10.660156-5.941406 11.691406-11.957031.296875-1.601562.222656-.441406.222656-24.359375 0-8.136718-6.621094-14.757812-14.761719-14.757812zm0 0"/></svg>