<svg height="512pt" viewBox="0 0 512 512.00126" width="512pt" xmlns="http://www.w3.org/2000/svg"><path d="m511.242188 166.953125c4.414062-48.554687-10.511719-92.652344-42.027344-124.167969s-75.609375-46.441406-124.164063-42.023437c-47.53125 4.320312-93.78125 26.773437-130.234375 63.222656-32.949218 32.953125-54.855468 74.804687-61.679687 117.851563-13.457031 84.871093-25.601563 108.980468-46.449219 159.878906l-106.6875 106.6875 63.601562 63.597656 106.6875-106.683594c50.496094-20.683594 74.714844-32.949218 159.878907-46.453125 43.046875-6.824219 84.898437-28.726562 117.847656-61.679687 36.449219-36.449219 58.902344-82.699219 63.226563-130.230469zm-241.894532 160.5c-15.957031-3.878906-30.558594-10.75-43.210937-20.390625l41.679687-41.679688 31.800782 31.800782zm-85.664062-146.203125 9.933594 9.933594-12.636719 12.636718c.4375-9.480468.90625-13.246093 2.703125-22.570312zm209.761718-147.492188c15.722657 3.820313 30.402344 10.578126 43.246094 20.351563l-41.675781 41.675781-31.800781-31.796875zm-19.628906 83.226563-42.402344 42.402344-31.796874-31.800781 42.398437-42.402344zm95.5625 95.5625c-7.507812 18.351563-18.335937 36.167969-32.363281 52.4375l-31.402344-31.398437 42.402344-42.402344zm-.164062-42.5625 12.628906-12.628906c-.339844 7.464843-1.234375 15.007812-2.691406 22.566406zm-84.800782 42.402344-31.800781-31.800781 42.402344-42.402344 31.800781 31.800781zm-74.195312-31.800781-42.402344 42.398437-31.800781-31.796875 42.402344-42.402344zm-31.800781-74.199219-31.402344-31.402344c16.269531-14.023437 34.085937-24.851563 52.4375-32.359375l21.363281 21.359375zm-21.199219 21.199219-42.402344 42.398437-21.351562-21.351563c7.65625-18.6875 18.605468-36.496093 32.347656-52.453124zm-42.402344 84.796874 31.800782 31.800782-41.679688 41.679687c-9.636719-12.652343-16.507812-27.253906-20.386719-43.210937zm74.199219 31.800782 42.402344-42.398438 31.796875 31.796875-42.398438 42.402344zm95.398437 10.601562 31.40625 31.40625c-15.957031 13.738282-33.765624 24.6875-52.453124 32.347656l-21.351563-21.355468zm93.832032-136.230468-30.230469 30.230468-31.800781-31.800781 41.679687-41.675781c9.769531 12.84375 16.527344 27.523437 20.351563 43.246094zm-123.601563-88.394532-12.628906 12.625-9.9375-9.9375c7.558594-1.457031 15.101563-2.351562 22.566406-2.6875zm-291.042969 439.441406-21.199218-21.203124 77.015625-77.015626 21.199219 21.199219zm101.765626-94.671874-28.296876-28.292969c13.847657-33.808594 19.292969-45.867188 26.835938-71.683594 7.125 16.148437 17.082031 30.800781 29.710938 43.429687 12.628906 12.628907 27.285156 22.585938 43.433593 29.710938-25.871093 7.558594-37.488281 12.828125-71.683593 26.835938zm142.8125-43.910157 12.636718-12.636719 9.933594 9.933594c-9.296875 1.792969-13.101562 2.265625-22.570312 2.703125zm0 0"/><path d="m437.035156 361.785156c-41.332031 0-74.953125 33.625-74.953125 74.953125s33.621094 74.953125 74.953125 74.953125c41.328125 0 74.953125-33.625 74.953125-74.953125s-33.625-74.953125-74.953125-74.953125zm0 119.925782c-24.796875 0-44.972656-20.175782-44.972656-44.972657s20.175781-44.972656 44.972656-44.972656 44.96875 20.175781 44.96875 44.972656-20.171875 44.972657-44.96875 44.972657zm0 0"/></svg>