<?xml version="1.0" encoding="iso-8859-1"?>
<!-- Generator: Adobe Illustrator 17.1.0, SVG Export Plug-In . SVG Version: 6.00 Build 0)  -->
<!DOCTYPE svg PUBLIC "-//W3C//DTD SVG 1.1//EN" "http://www.w3.org/Graphics/SVG/1.1/DTD/svg11.dtd">
<svg version="1.1" id="Capa_1" xmlns="http://www.w3.org/2000/svg" xmlns:xlink="http://www.w3.org/1999/xlink" x="0px" y="0px"
	 viewBox="0 0 113.459 113.459" style="enable-background:new 0 0 113.459 113.459;" xml:space="preserve">
<g>
	<path d="M79.645,21.255l-1.259-0.417c-1.483-0.492-3.308,0.286-3.986,1.683l-6.303,12.984c-0.337,0.695-1.34,1.435-2.103,1.552
		L59.82,38.01l-9.989,0.759c-0.025,0.001-0.045-0.002-0.071,0l-3.873,0.284c-1.335,0.098-3.102,0.936-4.023,1.907l-9.395,9.914
		c-1.017,1.073-1.389,2.991-0.847,4.367l5.19,13.159c0.092,0.234,0.223,0.46,0.37,0.681l-0.255,1.014
		c-0.061,0.115-0.119,0.234-0.17,0.362l-5.047,12.693c-0.426,1.071-1.743,2.377-2.817,2.795l-14.274,5.544
		c-0.945,0.367-1.606,1.071-1.815,1.933c-0.209,0.862,0.057,1.792,0.728,2.55l1.261,1.425c0.87,0.983,2.314,1.594,3.769,1.594
		c0.532,0,1.033-0.083,1.489-0.247l15.068-5.408c1.6-0.574,3.386-2.244,4.067-3.801l5.174-11.832l1.703-0.208l-5.449,29.996
		c-0.492,2.71,1.31,5.326,4.019,5.832l0.283,0.052c0.302,0.057,0.609,0.085,0.915,0.085c2.408,0,4.477-1.716,4.92-4.082
		l6.906-36.854c0.016-0.083,0.01-0.163,0.021-0.246l5.307-27.332l8.273-1.161c1.452-0.204,2.969-1.379,3.529-2.735l6.601-15.985
		c0.31-0.751,0.298-1.564-0.034-2.289S80.416,21.51,79.645,21.255z M41.455,52.071l-1.414,5.632l-0.7-1.597
		c-0.281-0.642-0.1-1.689,0.381-2.198L41.455,52.071z"/>
	<path d="M54.67,35.004c1.208,0,2.398-0.215,3.539-0.639c2.546-0.945,4.572-2.826,5.704-5.296c1.131-2.469,1.234-5.231,0.288-7.778
		c-1.473-3.966-5.305-6.63-9.535-6.63c-1.207,0-2.397,0.215-3.539,0.639c-5.256,1.953-7.944,7.818-5.992,13.074
		C46.609,32.339,50.441,35.004,54.67,35.004z"/>
	<path d="M99.223,107.926h-6.125V23.74c0-0.829-0.671-1.5-1.5-1.5s-1.5,0.671-1.5,1.5v84.186h-6.125c-0.829,0-1.5,0.671-1.5,1.5
		s0.671,1.5,1.5,1.5h15.25c0.829,0,1.5-0.671,1.5-1.5S100.052,107.926,99.223,107.926z"/>
	<path d="M85.785,19c5.238,0,9.5-4.262,9.5-9.5S91.024,0,85.785,0s-9.5,4.262-9.5,9.5S80.547,19,85.785,19z"/>
</g>
<g>
</g>
<g>
</g>
<g>
</g>
<g>
</g>
<g>
</g>
<g>
</g>
<g>
</g>
<g>
</g>
<g>
</g>
<g>
</g>
<g>
</g>
<g>
</g>
<g>
</g>
<g>
</g>
<g>
</g>
</svg>
